<svg xmlns="http://www.w3.org/2000/svg" viewBox="0 0 512 512">
  <rect width="512" height="512" rx="90" fill="#0a0a0a"/>
  <rect x="20" y="20" width="472" height="472" rx="75" fill="#111"/>
  <g transform="translate(24, 24) scale(29)">
    <!-- Smoke trail -->
    <rect x="12" y="6" width="1" height="1" fill="#aaa"/>
    <rect x="13" y="5" width="1" height="1" fill="#888"/>
    <rect x="14" y="4" width="1" height="1" fill="#555"/>
    <!-- Fedora hat -->
    <rect x="6" y="0" width="4" height="1" fill="#1a1a1a"/>
    <rect x="5" y="1" width="6" height="1" fill="#222"/>
    <rect x="5" y="2" width="6" height="1" fill="#222"/>
    <rect x="3" y="3" width="10" height="1" fill="#2a2a2a"/>
    <rect x="5" y="3" width="6" height="1" fill="#b71c1c"/>
    <!-- Face - white, skinny -->
    <rect x="6" y="4" width="4" height="1" fill="#fdd"/>
    <!-- Sunglasses -->
    <rect x="6" y="5" width="4" height="1" fill="#111"/>
    <rect x="6" y="5" width="1" height="1" fill="#333"/>
    <!-- Nose -->
    <rect x="6" y="6" width="4" height="1" fill="#fdd"/>
    <rect x="7" y="6" width="2" height="1" fill="#dbb"/>
    <!-- Mouth + cigarette -->
    <rect x="6" y="7" width="4" height="1" fill="#fdd"/>
    <rect x="10" y="7" width="2" height="1" fill="#eee"/>
    <rect x="12" y="7" width="1" height="1" fill="#e53935"/>
    <!-- Chin -->
    <rect x="6" y="8" width="4" height="1" fill="#fdd"/>
    <!-- Suit collar + tie -->
    <rect x="5" y="9" width="6" height="1" fill="#111"/>
    <rect x="7" y="9" width="2" height="1" fill="#b71c1c"/>
    <!-- Suit body + tie -->
    <rect x="5" y="10" width="6" height="1" fill="#111"/>
    <rect x="7" y="10" width="2" height="1" fill="#b71c1c"/>
    <rect x="5" y="11" width="6" height="1" fill="#1a1a1a"/>
    <rect x="7" y="11" width="2" height="1" fill="#b71c1c"/>
    <rect x="6" y="12" width="4" height="1" fill="#1a1a1a"/>
    <!-- Skinny legs -->
    <rect x="6" y="13" width="2" height="1" fill="#111"/>
    <rect x="8" y="13" width="2" height="1" fill="#111"/>
    <!-- Shoes -->
    <rect x="5" y="14" width="3" height="1" fill="#0a0a0a"/>
    <rect x="8" y="14" width="3" height="1" fill="#0a0a0a"/>
  </g>
</svg>
